# xmcd CD database file
#
# Track frame offsets:
#	150
#	12385
#	25865
#	38992
#	52512
#	65762
#	78522
#	93725
#	107525
#	122270
#	136670
#	150370
#	164087
#	177957
#	192727
#	208120
#	220750
#	234360
#	248957
#
# Disc length: 3509 seconds
#
# Revision: 5
# Processed by: cddbd v1.5.1PL0 Copyright (c) Steve Scherf et al.
# Submitted via: CDex 1.51
#
DISCID=fd0db313
DTITLE=Lonnie Johnson - Steppin' On The Blues
DYEAR=1990
DGENRE=Blues
TTITLE0=Mr. Johnson's Blues
TTITLE1=Sweet Potato Blues
TTITLE2=Steppin' On The Blues
TTITLE3=I Done Told You
TTITLE4=Mean Old Bedbug Blues
TTITLE5=Toothache Blues - Part I (w Victoria Spivey)
TTITLE6=Toothache Blues - Part II (w Victoria Spivey)
TTITLE7=Have To Change Keys (To Play These Blues)
TTITLE8=Guitar Blues
TTITLE9=She's Making Whoopee In Hell Tonight
TTITLE10=Playing With The Strings
TTITLE11=No More Women Blues
TTITLE12=Deep Blue Sea Blues
TTITLE13=No More Troubles Now
TTITLE14=Got The Blues For Murder Only
TTITLE15=[untitled]
TTITLE16=6/88 Glide
TTITLE17=Racketeer's Blues
TTITLE18=I'm Nuts About That Gal
EXTD=Columbia, CK 46221 YEAR: 1990
EXTT0=
EXTT1=
EXTT2=
EXTT3=
EXTT4=
EXTT5=
EXTT6=
EXTT7=
EXTT8=
EXTT9=
EXTT10=
EXTT11=
EXTT12=
EXTT13=
EXTT14=
EXTT15=
EXTT16=
EXTT17=
EXTT18=
PLAYORDER=
